<svg width="24" height="24" viewBox="0 0 24 24" fill="none" xmlns="http://www.w3.org/2000/svg">
<path d="M11.6732 3.54209C11.8873 3.48597 12.1127 3.48597 12.3268 3.54209C12.5807 3.60863 12.7912 3.76984 12.9021 3.85475L12.9338 3.87887L19.1127 8.51253C19.4625 8.77433 19.7574 8.9951 19.9769 9.28268C20.1698 9.53537 20.3136 9.82073 20.4011 10.1245C20.5007 10.4702 20.5004 10.834 20.5 11.2655L20.4999 16.8956C20.4999 17.3655 20.4999 17.7656 20.4726 18.0941C20.4438 18.4392 20.3808 18.7749 20.2141 19.0959C19.9627 19.5797 19.5615 19.9732 19.0681 20.2197C18.7408 20.3832 18.3985 20.445 18.0466 20.4732C17.7116 20.5 17.3037 20.5 16.8245 20.5H12.8141V13.9379C12.8141 13.4971 12.4497 13.1398 12.0003 13.1398C11.5508 13.1398 11.1864 13.4971 11.1864 13.9379V20.5H7.17549C6.69637 20.5 6.28837 20.5 5.95342 20.4732C5.60153 20.445 5.25918 20.3832 4.93191 20.2197C4.43849 19.9732 4.03733 19.5797 3.78592 19.0959C3.61916 18.7749 3.5562 18.4392 3.52744 18.0941C3.50008 17.7656 3.50009 17.3655 3.5001 16.8956L3.50005 11.2656C3.49965 10.834 3.4993 10.4702 3.59891 10.1245C3.68643 9.82073 3.83022 9.53537 4.0231 9.28268C4.24261 8.9951 4.53755 8.77433 4.88732 8.51253L11.0662 3.87887L11.0979 3.85475C11.2088 3.76984 11.4193 3.60863 11.6732 3.54209Z" fill="#00BFF9"/>
</svg>
