<svg width="24" height="24" viewBox="0 0 24 24" fill="none" xmlns="http://www.w3.org/2000/svg">
<path fill-rule="evenodd" clip-rule="evenodd" d="M12.3268 3.54209C12.1127 3.48597 11.8873 3.48597 11.6732 3.54209C11.4193 3.60863 11.2088 3.76984 11.0979 3.85475L11.0662 3.87887L4.88732 8.51251C4.53755 8.77432 4.24261 8.99508 4.0231 9.28267C3.83022 9.53536 3.68643 9.82071 3.59891 10.1245C3.4993 10.4701 3.49965 10.834 3.50005 11.2655L3.5001 16.8956C3.50009 17.3654 3.50008 17.7655 3.52745 18.094C3.5562 18.4391 3.61916 18.7749 3.78592 19.0958C4.03733 19.5797 4.43849 19.9731 4.93191 20.2197C5.25918 20.3832 5.60153 20.4449 5.95342 20.4731C6.28837 20.5 6.69633 20.5 7.17544 20.4999H11.9907C11.9939 20.5 11.9971 20.5 12.0003 20.5C12.0035 20.5 12.0066 20.5 12.0098 20.4999H16.8245C17.3036 20.5 17.7116 20.5 18.0466 20.4731C18.3985 20.4449 18.7408 20.3832 19.0681 20.2197C19.5615 19.9731 19.9627 19.5797 20.2141 19.0958C20.3808 18.7749 20.4438 18.4391 20.4726 18.094C20.4999 17.7655 20.4999 17.3655 20.4999 16.8956L20.5 11.2655C20.5004 10.834 20.5007 10.4701 20.4011 10.1245C20.3136 9.82071 20.1698 9.53536 19.9769 9.28267C19.7574 8.99508 19.4625 8.77432 19.1127 8.51251L12.9338 3.87887L12.9021 3.85475C12.7912 3.76984 12.5807 3.60863 12.3268 3.54209ZM12.8141 18.9036H17.1542C17.8908 18.9036 18.066 18.8938 18.185 18.8559C18.4878 18.7594 18.7252 18.5266 18.8236 18.2296C18.8622 18.113 18.8723 17.9411 18.8723 17.2187V11.1742C18.8723 10.8015 18.8691 10.7168 18.8556 10.6455C18.822 10.4683 18.739 10.3037 18.6159 10.1699C18.5663 10.1161 18.4997 10.0622 18.1978 9.83578L12 5.18788L5.80218 9.83578C5.50032 10.0622 5.43369 10.1161 5.38412 10.1699C5.26097 10.3037 5.17802 10.4683 5.14447 10.6455C5.13096 10.7168 5.12775 10.8015 5.12775 11.1742V17.2187C5.12775 17.9411 5.13779 18.113 5.17643 18.2296C5.27482 18.5266 5.51224 18.7594 5.81505 18.8559C5.93398 18.8938 6.10925 18.9036 6.84582 18.9036H11.1864V13.9379C11.1864 13.4971 11.5508 13.1398 12.0003 13.1398C12.4497 13.1398 12.8141 13.4971 12.8141 13.9379V18.9036Z" fill="#B0B4B8"/>
</svg>
